<svg width="217" height="223" viewBox="0 0 217 223" fill="none" xmlns="http://www.w3.org/2000/svg">
<path d="M5.63652 110.701C2.73159 146.179 -9.50723 176.987 14.9228 203.009C43.5435 233.486 89.5462 222.655 122.905 208.483C153.645 195.425 187.242 171.584 199.172 154.995C221.102 124.518 222.911 83.5661 197.719 55.7199C187.171 44.06 173.908 36.4763 159.86 32.9689C143.716 28.9401 128.168 22.6124 114.833 12.6826C111.119 9.90981 106.976 7.46883 102.357 5.43072C84.5221 -2.46103 63.7352 -1.72636 46.5437 7.46883C13.8037 24.9823 9.54152 63.3746 5.66034 110.678L5.63652 110.701Z" fill="#1F56A8"/>
</svg>
