<svg width="253" height="199" viewBox="0 0 253 199" fill="none" xmlns="http://www.w3.org/2000/svg">
<path d="M249.483 86.6355C243.033 66.2396 225.948 52.098 206.195 48.3084C193.42 45.8437 181.668 39.2812 173.947 28.8676C173.451 28.1898 172.954 27.512 172.489 26.8034C167.156 18.8237 159.745 12.1688 150.783 7.70144C138.132 0.399576 122.783 -2.06522 107.961 1.8476C92.2088 5.97608 79.8985 16.2357 72.7356 29.2373C65.9758 41.5303 54.3167 50.4959 40.797 54.4087C27.9906 58.1059 16.4245 66.3012 8.73447 78.3786C-1.40525 94.3688 -2.45955 113.471 4.23825 129.707C6.37782 135.068 9.32361 140.059 12.9826 144.527C22.6262 156.296 28.0216 171.023 26.7503 186.15C25.603 199.614 29.293 213.54 38.3474 225.186C54.8128 246.445 84.4257 252.915 108.24 241.238C112.271 239.266 116.488 237.695 120.954 237.171C130.907 235.969 141.047 237.233 150.535 240.961C162.877 245.798 177.048 246.383 190.66 241.484C195.746 239.667 200.428 237.14 204.614 234.09C204.645 234.09 204.707 234.028 204.738 233.998C224.955 219.887 233.049 195.054 226.692 172.687C223.87 162.766 226.94 152.229 234.444 145.112C234.568 144.989 234.692 144.866 234.847 144.742C243.188 136.639 248.584 126.411 250.785 115.566C252.863 106.261 252.615 96.3405 249.545 86.6047L249.483 86.6355Z" fill="#F4A81F"/>
</svg>
