<svg width="291" height="197" viewBox="0 0 291 197" fill="none" xmlns="http://www.w3.org/2000/svg">
<path d="M251.674 8.72099C252.338 4.29048 252.527 -0.281427 252.124 -4.97117C249.824 -32.9918 227.08 -55.7335 198.906 -58.1844C191.127 -58.8679 183.633 -58.043 176.684 -55.9692C154.344 -49.2999 130.581 -51.138 108.762 -59.3628C101.031 -62.2615 92.5406 -63.6048 83.6709 -62.992C54.6427 -60.9417 31.1641 -37.3987 29.338 -8.52972C28.9585 -2.56738 29.4803 3.20642 30.7847 8.67386C35.8124 29.8602 31.7333 52.3427 17.6461 69.0278C6.5234 82.1779 -0.117017 99.193 0.00156179 117.74C0.262435 156.931 31.4724 189.806 70.8406 192.187C85.1887 193.059 98.7304 189.948 110.47 183.844C130.842 173.263 155.387 172.886 174.811 185.117C188.091 193.483 204.171 197.819 221.365 196.476C258.409 193.53 288.172 163.483 290.567 126.624C291.919 105.697 284.662 86.467 271.927 72.0915C256.488 54.6286 248.187 31.7219 251.697 8.72099H251.674Z" fill="#7CAB3B"/>
</svg>
