<svg width="114" height="86" viewBox="0 0 114 86" fill="none" xmlns="http://www.w3.org/2000/svg">
<path d="M74.2923 21.9276C74.3014 20.6463 74.1702 19.3443 73.8661 18.0329C72.0797 10.193 64.7085 4.67653 56.618 5.12484C54.3839 5.24671 52.2917 5.78405 50.4047 6.6529C44.338 9.44678 37.5234 9.88974 31.002 8.44572C28.6918 7.93849 26.2292 7.90239 23.7382 8.43544C15.5877 10.1927 9.88091 17.81 10.5312 26.0573C10.6648 27.7607 11.0464 29.3742 11.6377 30.8693C13.921 36.6636 13.6738 43.1942 10.3533 48.4891C7.73062 52.663 6.53566 57.7495 7.31981 62.9956C8.97971 74.0807 19.1624 82.1229 30.4251 81.2008C34.5301 80.866 38.2452 79.4363 41.3279 77.2323C46.678 73.4107 53.6249 72.3088 59.629 74.9842C63.7345 76.8143 68.4707 77.3901 73.2932 76.3128C83.6812 73.977 90.9073 64.2634 90.0952 53.7312C89.6318 47.7516 86.7953 42.6014 82.6013 39.0477C77.5156 34.7296 74.2343 28.5809 74.2991 21.9267L74.2923 21.9276Z" fill="#7CAB3B"/>
<path d="M82.9922 76.9596L76.1967 72.8409C73.6685 71.3086 72.7317 68.1433 73.9048 65.4356C79.8628 51.6664 74.54 39.8553 70.8125 34.0151C69.2854 31.6189 69.6397 28.4817 71.7073 26.5357L77.5554 21.0463C80.1701 18.5916 84.3713 19.0179 86.3988 21.9752C94.1078 33.2367 101.238 53.1428 91.3368 74.473C89.8788 77.6192 85.9604 78.7586 82.9922 76.9596Z" fill="#E85E2C"/>
</svg>
