<svg width="80" height="24" viewBox="0 0 80 24" fill="none" xmlns="http://www.w3.org/2000/svg">
<g clip-path="url(#clip0_2012_1535)">
<path d="M68.9478 18.1553V22.9423L66.4243 23.0232C64.6285 23.0232 63.2253 22.5843 62.2205 21.7066C61.2157 20.8288 60.7133 19.4545 60.7133 17.0234V9.81109H57.6875V5.69387H60.7133V0.745117H65.6736V5.69387H68.6937V9.81109H65.6736V16.0995C65.6736 16.5846 65.6217 17.3641 66.0201 17.7626C66.4186 18.161 67.0133 18.1726 67.279 18.1783C67.995 18.1899 68.9478 18.1553 68.9478 18.1553Z" fill="#E85E2C"/>
<path d="M0 22.6478L8.60401 0.508301H13.6625L5.37607 22.6478H0ZM4.04793 18.4381V13.9456H18.6286V18.4381H4.04793ZM17.2715 22.6478L8.98513 0.508301H14.0436L22.6476 22.6478H17.2715Z" fill="#E85E2C"/>
<path d="M23.6582 14.9274V6.83154H28.5896V14.9274H23.6582ZM28.5954 14.9274C28.5954 15.7474 28.6936 16.4114 28.8784 16.9196C29.0689 17.4278 29.3403 17.7973 29.6983 18.0283C30.0564 18.2593 30.4779 18.3863 30.963 18.4094C31.91 18.4094 32.626 18.138 33.1111 17.601C33.5961 17.064 33.8387 16.2555 33.8387 15.1815H35.3285C35.3285 16.8445 35.0744 18.2651 34.572 19.4373C34.0639 20.6095 33.3767 21.4988 32.499 22.1109C31.6212 22.723 30.6049 23.029 29.4443 23.029C28.1796 23.029 27.1114 22.7692 26.251 22.2552C25.3848 21.7413 24.738 20.956 24.3049 19.8992C23.8719 18.8425 23.6582 17.4971 23.6582 15.8513V14.9332H28.5896L28.5954 14.9274ZM34.1274 22.6479L33.8444 19.7376V6.83154H38.7816V22.6479H34.1332H34.1274Z" fill="#E85E2C"/>
<path d="M41.3751 22.648V6.83158H46.0235L46.3065 9.74193V22.648H41.3751ZM51.5613 14.5521C51.5613 13.709 51.4689 13.0392 51.2783 12.5426C51.0878 12.046 50.8222 11.6822 50.4699 11.4512C50.1234 11.2202 49.6961 11.0932 49.188 11.0701C48.2409 11.047 47.5249 11.3068 47.0398 11.8439C46.5548 12.3809 46.3123 13.2009 46.3123 14.298H44.8282C44.8282 12.635 45.0823 11.2144 45.5847 10.0422C46.0928 8.86998 46.78 7.98071 47.6577 7.36861C48.5297 6.75651 49.5518 6.45046 50.7124 6.45046C51.9771 6.45046 53.0396 6.71032 53.9057 7.22425C54.7719 7.74395 55.4187 8.52351 55.8517 9.58024C56.2848 10.637 56.4985 11.9824 56.4985 13.6282V14.5463H51.5671L51.5613 14.5521ZM51.5613 22.648V14.5521H56.4927V22.648H51.5613Z" fill="#E85E2C"/>
<path d="M74.1574 5.96547C73.3663 5.96547 72.6733 5.66519 72.0728 5.06465C71.4722 4.4641 71.1777 3.77116 71.1777 2.98005C71.1777 2.14275 71.478 1.43826 72.0728 0.860805C72.6733 0.283354 73.3663 -0.00537109 74.1574 -0.00537109C74.9485 -0.00537109 75.6703 0.283354 76.2593 0.860805C76.8483 1.43826 77.1428 2.14275 77.1428 2.98005C77.1428 3.77116 76.8483 4.4641 76.2593 5.06465C75.6703 5.66519 74.9716 5.96547 74.1574 5.96547Z" fill="#E85E2C"/>
<path d="M75.1616 5.78026C74.4572 5.37604 73.7815 5.09887 73.2272 4.94873L73.0078 5.72251C73.3658 5.8842 73.7527 5.97082 74.1626 5.97082C74.5207 5.97082 74.8498 5.90152 75.1674 5.78603L75.1616 5.78026Z" fill="#E85E2C"/>
<path d="M76.7496 6.90051C75.9874 7.42022 75.1039 7.69739 74.1569 7.69739C73.5852 7.69739 73.0424 7.59345 72.5227 7.39135L71.8066 9.90903C72.3148 10.0649 74.8383 10.9889 74.8383 14.0205C74.8383 17.0521 72.309 17.976 71.8066 18.1319L72.5285 20.6092L73.2214 23.0922C75.5658 22.4397 80.0007 19.6968 80.0007 14.0205C80.0007 10.6944 78.482 8.38456 76.7496 6.90629V6.90051Z" fill="#E85E2C"/>
</g>
<defs>
<clipPath id="clip0_2012_1535">
<rect width="80" height="23.0922" fill="white"/>
</clipPath>
</defs>
</svg>
